<svg width="1440" height="900" viewBox="0 0 1440 900" fill="none" xmlns="http://www.w3.org/2000/svg">
  <rect width="1440" height="900" fill="#040b06"/>
  <!-- Matrix green decorative gradients -->
  <g opacity="0.35">
    <circle cx="200" cy="150" r="450" fill="url(#matrix_green_glow)"/>
    <circle cx="1200" cy="750" r="550" fill="url(#matrix_bright_glow)"/>
    <circle cx="700" cy="450" r="350" fill="url(#matrix_cyan_glow)"/>
  </g>
  <!-- Cyber grid overlay -->
  <path d="M 0 50 L 1440 50 M 0 100 L 1440 100 M 0 150 L 1440 150 M 0 200 L 1440 200 M 0 250 L 1440 250 M 0 300 L 1440 300 M 0 350 L 1440 350 M 0 400 L 1440 400 M 0 450 L 1440 450 M 0 500 L 1440 500 M 0 555 L 1440 555 M 0 600 L 1440 600 M 0 650 L 1440 650 M 0 700 L 1440 700 M 0 750 L 1440 750 M 0 800 L 1440 800 M 0 850 L 1440 850" stroke="#00ff66" stroke-width="0.3" stroke-opacity="0.12" stroke-dasharray="2 10"/>
  <path d="M 50 0 L 50 900 M 100 0 L 100 900 M 150 0 L 150 900 M 200 0 L 200 900 M 250 0 L 250 900 M 300 0 L 300 900 M 350 0 L 350 900 M 400 0 L 400 900 M 450 0 L 450 900 M 500 0 L 500 900 M 550 0 L 550 900 M 600 0 L 600 900 M 650 0 L 650 900 M 700 0 L 700 900 M 750 0 L 750 900 M 800 0 L 800 900 M 850 0 L 850 900 M 900 0 L 900 900 M 950 0 L 950 900 M 1000 0 L 1000 900 M 1050 0 L 1050 900 M 1100 0 L 1100 900 M 1150 0 L 1150 900 M 1200 0 L 1200 900 M 1250 0 L 1250 900 M 1300 0 L 1300 900 M 1350 0 L 1350 900 M 1400 0 L 1400 900" stroke="#00ff66" stroke-width="0.3" stroke-opacity="0.12" stroke-dasharray="2 10"/>
  
  <defs>
    <radialGradient id="matrix_green_glow" cx="0" cy="0" r="1" gradientUnits="userSpaceOnUse" gradientTransform="translate(200 150) rotate(90) scale(450)">
      <stop offset="0%" stop-color="#00ff66" stop-opacity="0.35"/>
      <stop offset="100%" stop-color="#040b06" stop-opacity="0"/>
    </radialGradient>
    <radialGradient id="matrix_bright_glow" cx="0" cy="0" r="1" gradientUnits="userSpaceOnUse" gradientTransform="translate(1200 750) rotate(90) scale(550)">
      <stop offset="0%" stop-color="#39ff14" stop-opacity="0.25"/>
      <stop offset="100%" stop-color="#040b06" stop-opacity="0"/>
    </radialGradient>
    <radialGradient id="matrix_cyan_glow" cx="0" cy="0" r="1" gradientUnits="userSpaceOnUse" gradientTransform="translate(700 450) rotate(90) scale(350)">
      <stop offset="0%" stop-color="#00e5ff" stop-opacity="0.18"/>
      <stop offset="100%" stop-color="#040b06" stop-opacity="0"/>
    </radialGradient>
  </defs>
</svg>
